<svg width="60" height="61" viewBox="0 0 60 61" fill="none" xmlns="http://www.w3.org/2000/svg">
<path d="M42.5 53.0701V48.0701C42.5 45.4179 41.4464 42.8744 39.5711 40.999C37.6957 39.1237 35.1522 38.0701 32.5 38.0701H12.5C9.84783 38.0701 7.3043 39.1237 5.42893 40.999C3.55357 42.8744 2.5 45.4179 2.5 48.0701V53.0701" stroke="#D860A8" stroke-width="2" stroke-linecap="round" stroke-linejoin="round"/>
<path d="M22.5 28.0701C28.0228 28.0701 32.5 23.5929 32.5 18.0701C32.5 12.5473 28.0228 8.07007 22.5 8.07007C16.9772 8.07007 12.5 12.5473 12.5 18.0701C12.5 23.5929 16.9772 28.0701 22.5 28.0701Z" stroke="#D860A8" stroke-width="2" stroke-linecap="round" stroke-linejoin="round"/>
<path d="M57.5 53.0698V48.0698C57.4984 45.8541 56.7609 43.7018 55.4034 41.9506C54.0459 40.1995 52.1453 38.9487 50 38.3948" stroke="#D860A8" stroke-width="2" stroke-linecap="round" stroke-linejoin="round"/>
<path d="M40 8.39502C42.151 8.94577 44.0576 10.1968 45.4191 11.9508C46.7806 13.7048 47.5196 15.8621 47.5196 18.0825C47.5196 20.303 46.7806 22.4602 45.4191 24.2143C44.0576 25.9683 42.151 27.2193 40 27.77" stroke="#D860A8" stroke-width="2" stroke-linecap="round" stroke-linejoin="round"/>
</svg>
