<svg width="48" height="48" viewBox="0 0 48 48" fill="none" xmlns="http://www.w3.org/2000/svg">
<path d="M39 1.68994C37.0109 1.68994 35.1032 2.48012 33.6967 3.88664C32.2902 5.29314 31.5 7.20084 31.5 9.18994V39.1899C31.5 41.179 32.2902 43.0867 33.6967 44.4932C35.1032 45.8997 37.0109 46.6899 39 46.6899C40.9891 46.6899 42.8968 45.8997 44.3033 44.4932C45.7098 43.0867 46.5 41.179 46.5 39.1899C46.5 37.2008 45.7098 35.2931 44.3033 33.8866C42.8968 32.4801 40.9891 31.6899 39 31.6899H9C7.0109 31.6899 5.1032 32.4801 3.6967 33.8866C2.29018 35.2931 1.5 37.2008 1.5 39.1899C1.5 41.179 2.29018 43.0867 3.6967 44.4932C5.1032 45.8997 7.0109 46.6899 9 46.6899C10.9891 46.6899 12.8968 45.8997 14.3033 44.4932C15.7098 43.0867 16.5 41.179 16.5 39.1899V9.18994C16.5 7.20084 15.7098 5.29314 14.3033 3.88664C12.8968 2.48012 10.9891 1.68994 9 1.68994C7.0109 1.68994 5.1032 2.48012 3.6967 3.88664C2.29018 5.29314 1.5 7.20084 1.5 9.18994C1.5 11.179 2.29018 13.0867 3.6967 14.4932C5.1032 15.8997 7.0109 16.6899 9 16.6899H39C40.9891 16.6899 42.8968 15.8997 44.3033 14.4932C45.7098 13.0867 46.5 11.179 46.5 9.18994C46.5 7.20084 45.7098 5.29314 44.3033 3.88664C42.8968 2.48012 40.9891 1.68994 39 1.68994Z" stroke="#37A282" stroke-width="2" stroke-linecap="round" stroke-linejoin="round"/>
</svg>
